<mxfile host="app.diagrams.net" modified="2024-04-19T14:26:40.554Z" agent="Mozilla/5.0 (Windows NT 10.0; Win64; x64) AppleWebKit/537.36 (KHTML, like Gecko) Chrome/124.0.0.0 Safari/537.36" etag="tSZp4wnI7bEVTNvK6a0i" version="24.2.1" type="github">
  <diagram name="Page-1" id="e7e014a7-5840-1c2e-5031-d8a46d1fe8dd">
    <mxGraphModel dx="3200" dy="1314" grid="1" gridSize="10" guides="1" tooltips="1" connect="1" arrows="1" fold="1" page="1" pageScale="1" pageWidth="1169" pageHeight="826" background="none" math="0" shadow="0">
      <root>
        <mxCell id="0" />
        <mxCell id="1" parent="0" />
        <mxCell id="4" value="DATABASE" style="swimlane;whiteSpace=wrap" parent="1" vertex="1">
          <mxGeometry x="1150" y="128" width="350" height="1092" as="geometry" />
        </mxCell>
        <mxCell id="7nc90YaqfQpY86WDY4Ez-61" value="CHECK IF THERE IS ANY USER WITH THAT EMAIL" style="rounded=1;whiteSpace=wrap;html=1;" vertex="1" parent="4">
          <mxGeometry x="60" y="82" width="160" height="78" as="geometry" />
        </mxCell>
        <mxCell id="7nc90YaqfQpY86WDY4Ez-65" value="IF RESULT OF THE QUERY IS TRUE, THEN THERE IS A USER WITH THAT EMAIL" style="shape=note;whiteSpace=wrap;html=1;backgroundOutline=1;darkOpacity=0.05;" vertex="1" parent="4">
          <mxGeometry x="60" y="172" width="170" height="78" as="geometry" />
        </mxCell>
        <mxCell id="7nc90YaqfQpY86WDY4Ez-78" value="CHECK IF SALT IS BEING USED BY ANOTHER USER" style="rounded=1;whiteSpace=wrap;html=1;" vertex="1" parent="4">
          <mxGeometry x="60" y="462" width="160" height="78" as="geometry" />
        </mxCell>
        <mxCell id="7nc90YaqfQpY86WDY4Ez-94" style="edgeStyle=orthogonalEdgeStyle;rounded=0;orthogonalLoop=1;jettySize=auto;html=1;curved=0;entryX=0;entryY=0.5;entryDx=0;entryDy=0;" edge="1" parent="4" source="7nc90YaqfQpY86WDY4Ez-90" target="7nc90YaqfQpY86WDY4Ez-92">
          <mxGeometry relative="1" as="geometry">
            <Array as="points">
              <mxPoint x="50" y="789" />
              <mxPoint x="50" y="789" />
            </Array>
          </mxGeometry>
        </mxCell>
        <mxCell id="7nc90YaqfQpY86WDY4Ez-97" style="edgeStyle=orthogonalEdgeStyle;rounded=0;orthogonalLoop=1;jettySize=auto;html=1;curved=0;entryX=0;entryY=0.5;entryDx=0;entryDy=0;" edge="1" parent="4" source="7nc90YaqfQpY86WDY4Ez-90" target="7nc90YaqfQpY86WDY4Ez-93">
          <mxGeometry relative="1" as="geometry">
            <Array as="points">
              <mxPoint x="60" y="860" />
              <mxPoint x="60" y="860" />
            </Array>
          </mxGeometry>
        </mxCell>
        <mxCell id="7nc90YaqfQpY86WDY4Ez-90" value="" style="html=1;points=[[0,0,0,0,5],[0,1,0,0,-5],[1,0,0,0,5],[1,1,0,0,-5]];perimeter=orthogonalPerimeter;outlineConnect=0;targetShapes=umlLifeline;portConstraint=eastwest;newEdgeStyle={&quot;curved&quot;:0,&quot;rounded&quot;:0};" vertex="1" parent="4">
          <mxGeometry x="40" y="769" width="10" height="134" as="geometry" />
        </mxCell>
        <mxCell id="7nc90YaqfQpY86WDY4Ez-92" value="INSERT A NEW USER" style="rounded=1;whiteSpace=wrap;html=1;" vertex="1" parent="4">
          <mxGeometry x="80" y="769" width="140" height="40" as="geometry" />
        </mxCell>
        <mxCell id="7nc90YaqfQpY86WDY4Ez-93" value="DEFINE THAT THIS USER WILL HAVE THE COMMON USER POLICY" style="rounded=1;whiteSpace=wrap;html=1;" vertex="1" parent="4">
          <mxGeometry x="80" y="822" width="140" height="78" as="geometry" />
        </mxCell>
        <mxCell id="7nc90YaqfQpY86WDY4Ez-98" value="" style="html=1;points=[[0,0,0,0,5],[0,1,0,0,-5],[1,0,0,0,5],[1,1,0,0,-5]];perimeter=orthogonalPerimeter;outlineConnect=0;targetShapes=umlLifeline;portConstraint=eastwest;newEdgeStyle={&quot;curved&quot;:0,&quot;rounded&quot;:0};" vertex="1" parent="4">
          <mxGeometry x="250" y="769" width="10" height="134" as="geometry" />
        </mxCell>
        <mxCell id="7nc90YaqfQpY86WDY4Ez-103" style="edgeStyle=orthogonalEdgeStyle;rounded=0;orthogonalLoop=1;jettySize=auto;html=1;curved=0;entryX=0;entryY=0.5;entryDx=0;entryDy=0;" edge="1" parent="4">
          <mxGeometry relative="1" as="geometry">
            <mxPoint x="220" y="788.78" as="sourcePoint" />
            <mxPoint x="250" y="788.78" as="targetPoint" />
            <Array as="points">
              <mxPoint x="220" y="788.78" />
              <mxPoint x="220" y="788.78" />
            </Array>
          </mxGeometry>
        </mxCell>
        <mxCell id="7nc90YaqfQpY86WDY4Ez-104" style="edgeStyle=orthogonalEdgeStyle;rounded=0;orthogonalLoop=1;jettySize=auto;html=1;curved=0;entryX=0;entryY=0.5;entryDx=0;entryDy=0;" edge="1" parent="4">
          <mxGeometry relative="1" as="geometry">
            <mxPoint x="220" y="860.78" as="sourcePoint" />
            <mxPoint x="250" y="860.78" as="targetPoint" />
            <Array as="points">
              <mxPoint x="220" y="860.78" />
              <mxPoint x="220" y="860.78" />
            </Array>
          </mxGeometry>
        </mxCell>
        <mxCell id="7nc90YaqfQpY86WDY4Ez-42" value="USER" style="swimlane;whiteSpace=wrap" vertex="1" parent="1">
          <mxGeometry x="170" y="128" width="280" height="1092" as="geometry" />
        </mxCell>
        <mxCell id="7nc90YaqfQpY86WDY4Ez-44" value="" style="ellipse;html=1;shape=startState;fillColor=#000000;strokeColor=#ff0000;" vertex="1" parent="7nc90YaqfQpY86WDY4Ez-42">
          <mxGeometry x="125" y="42" width="30" height="30" as="geometry" />
        </mxCell>
        <mxCell id="7nc90YaqfQpY86WDY4Ez-45" value="" style="edgeStyle=orthogonalEdgeStyle;html=1;verticalAlign=bottom;endArrow=open;endSize=8;strokeColor=#ff0000;rounded=0;" edge="1" source="7nc90YaqfQpY86WDY4Ez-44" parent="7nc90YaqfQpY86WDY4Ez-42">
          <mxGeometry relative="1" as="geometry">
            <mxPoint x="140" y="122" as="targetPoint" />
          </mxGeometry>
        </mxCell>
        <mxCell id="7nc90YaqfQpY86WDY4Ez-50" style="edgeStyle=orthogonalEdgeStyle;rounded=0;orthogonalLoop=1;jettySize=auto;html=1;" edge="1" parent="7nc90YaqfQpY86WDY4Ez-42" source="7nc90YaqfQpY86WDY4Ez-47" target="7nc90YaqfQpY86WDY4Ez-48">
          <mxGeometry relative="1" as="geometry" />
        </mxCell>
        <mxCell id="7nc90YaqfQpY86WDY4Ez-47" value="USER REGISTER" style="rounded=1;whiteSpace=wrap;html=1;" vertex="1" parent="7nc90YaqfQpY86WDY4Ez-42">
          <mxGeometry x="75" y="122" width="130" height="38" as="geometry" />
        </mxCell>
        <mxCell id="7nc90YaqfQpY86WDY4Ez-48" value="USER WRITE:&lt;div&gt;-EMAIL&lt;/div&gt;&lt;div&gt;-PASSWORD&lt;/div&gt;&lt;div&gt;-CONFIRM PASSWORD&lt;/div&gt;" style="rounded=1;whiteSpace=wrap;html=1;" vertex="1" parent="7nc90YaqfQpY86WDY4Ez-42">
          <mxGeometry x="65" y="212" width="150" height="60" as="geometry" />
        </mxCell>
        <mxCell id="7nc90YaqfQpY86WDY4Ez-52" style="edgeStyle=orthogonalEdgeStyle;rounded=0;orthogonalLoop=1;jettySize=auto;html=1;entryX=0;entryY=0.5;entryDx=0;entryDy=0;" edge="1" parent="1" source="7nc90YaqfQpY86WDY4Ez-48" target="7nc90YaqfQpY86WDY4Ez-51">
          <mxGeometry relative="1" as="geometry">
            <Array as="points">
              <mxPoint x="480" y="370" />
              <mxPoint x="480" y="250" />
            </Array>
          </mxGeometry>
        </mxCell>
        <mxCell id="7nc90YaqfQpY86WDY4Ez-56" style="edgeStyle=orthogonalEdgeStyle;rounded=0;orthogonalLoop=1;jettySize=auto;html=1;entryX=1;entryY=0.5;entryDx=0;entryDy=0;" edge="1" parent="1" source="7nc90YaqfQpY86WDY4Ez-53" target="7nc90YaqfQpY86WDY4Ez-47">
          <mxGeometry relative="1" as="geometry">
            <Array as="points">
              <mxPoint x="740" y="200" />
              <mxPoint x="410" y="200" />
              <mxPoint x="410" y="269" />
            </Array>
          </mxGeometry>
        </mxCell>
        <mxCell id="3" value="SYSTEM" style="swimlane;whiteSpace=wrap" parent="1" vertex="1">
          <mxGeometry x="450" y="128" width="700" height="1092" as="geometry" />
        </mxCell>
        <mxCell id="7nc90YaqfQpY86WDY4Ez-54" style="edgeStyle=orthogonalEdgeStyle;rounded=0;orthogonalLoop=1;jettySize=auto;html=1;entryX=0;entryY=0.5;entryDx=0;entryDy=0;" edge="1" parent="3" source="7nc90YaqfQpY86WDY4Ez-51" target="7nc90YaqfQpY86WDY4Ez-53">
          <mxGeometry relative="1" as="geometry" />
        </mxCell>
        <mxCell id="7nc90YaqfQpY86WDY4Ez-51" value="CHECK IF THE PASSWORD ARE THE SAME" style="rounded=1;whiteSpace=wrap;html=1;" vertex="1" parent="3">
          <mxGeometry x="60" y="92" width="150" height="60" as="geometry" />
        </mxCell>
        <mxCell id="7nc90YaqfQpY86WDY4Ez-59" style="edgeStyle=orthogonalEdgeStyle;rounded=0;orthogonalLoop=1;jettySize=auto;html=1;" edge="1" parent="3" source="7nc90YaqfQpY86WDY4Ez-53" target="7nc90YaqfQpY86WDY4Ez-58">
          <mxGeometry relative="1" as="geometry" />
        </mxCell>
        <mxCell id="7nc90YaqfQpY86WDY4Ez-53" value="" style="rhombus;whiteSpace=wrap;html=1;" vertex="1" parent="3">
          <mxGeometry x="260" y="92" width="60" height="60" as="geometry" />
        </mxCell>
        <mxCell id="7nc90YaqfQpY86WDY4Ez-57" value="DIFFERENT PASSWORDS" style="text;html=1;align=center;verticalAlign=middle;resizable=0;points=[];autosize=1;strokeColor=none;fillColor=none;" vertex="1" parent="3">
          <mxGeometry x="50" y="42" width="170" height="30" as="geometry" />
        </mxCell>
        <mxCell id="7nc90YaqfQpY86WDY4Ez-58" value="SANATIZE EMAIL" style="rounded=1;whiteSpace=wrap;html=1;" vertex="1" parent="3">
          <mxGeometry x="470" y="92" width="120" height="60" as="geometry" />
        </mxCell>
        <mxCell id="7nc90YaqfQpY86WDY4Ez-60" value="EQUAL PASSSWORDS" style="text;html=1;align=center;verticalAlign=middle;resizable=0;points=[];autosize=1;strokeColor=none;fillColor=none;" vertex="1" parent="3">
          <mxGeometry x="320" y="92" width="150" height="30" as="geometry" />
        </mxCell>
        <mxCell id="7nc90YaqfQpY86WDY4Ez-69" style="edgeStyle=orthogonalEdgeStyle;rounded=0;orthogonalLoop=1;jettySize=auto;html=1;" edge="1" parent="3" source="7nc90YaqfQpY86WDY4Ez-66" target="7nc90YaqfQpY86WDY4Ez-68">
          <mxGeometry relative="1" as="geometry" />
        </mxCell>
        <mxCell id="7nc90YaqfQpY86WDY4Ez-74" style="edgeStyle=orthogonalEdgeStyle;rounded=0;orthogonalLoop=1;jettySize=auto;html=1;entryX=1;entryY=0.5;entryDx=0;entryDy=0;" edge="1" parent="3" source="7nc90YaqfQpY86WDY4Ez-66" target="7nc90YaqfQpY86WDY4Ez-71">
          <mxGeometry relative="1" as="geometry">
            <Array as="points">
              <mxPoint x="530" y="392" />
            </Array>
          </mxGeometry>
        </mxCell>
        <mxCell id="7nc90YaqfQpY86WDY4Ez-66" value="" style="rhombus;whiteSpace=wrap;html=1;" vertex="1" parent="3">
          <mxGeometry x="500" y="272" width="60" height="60" as="geometry" />
        </mxCell>
        <mxCell id="7nc90YaqfQpY86WDY4Ez-68" value="SEND TO LOGIN PAGE" style="rounded=1;whiteSpace=wrap;html=1;" vertex="1" parent="3">
          <mxGeometry x="195" y="272" width="120" height="60" as="geometry" />
        </mxCell>
        <mxCell id="7nc90YaqfQpY86WDY4Ez-77" style="edgeStyle=orthogonalEdgeStyle;rounded=0;orthogonalLoop=1;jettySize=auto;html=1;entryX=0.5;entryY=0;entryDx=0;entryDy=0;" edge="1" parent="3" source="7nc90YaqfQpY86WDY4Ez-71" target="7nc90YaqfQpY86WDY4Ez-76">
          <mxGeometry relative="1" as="geometry" />
        </mxCell>
        <mxCell id="7nc90YaqfQpY86WDY4Ez-71" value="SANATIZE PASSWORD" style="rounded=1;whiteSpace=wrap;html=1;" vertex="1" parent="3">
          <mxGeometry x="75" y="362" width="120" height="60" as="geometry" />
        </mxCell>
        <mxCell id="7nc90YaqfQpY86WDY4Ez-70" value="IS IN USE" style="text;html=1;align=center;verticalAlign=middle;resizable=0;points=[];autosize=1;strokeColor=none;fillColor=none;" vertex="1" parent="3">
          <mxGeometry x="370" y="270" width="80" height="30" as="geometry" />
        </mxCell>
        <mxCell id="7nc90YaqfQpY86WDY4Ez-72" value="" style="ellipse;html=1;shape=endState;fillColor=#000000;strokeColor=#ff0000;" vertex="1" parent="3">
          <mxGeometry x="120" y="287" width="30" height="30" as="geometry" />
        </mxCell>
        <mxCell id="7nc90YaqfQpY86WDY4Ez-73" style="edgeStyle=orthogonalEdgeStyle;rounded=0;orthogonalLoop=1;jettySize=auto;html=1;" edge="1" parent="3" source="7nc90YaqfQpY86WDY4Ez-68">
          <mxGeometry relative="1" as="geometry">
            <mxPoint x="150" y="302" as="targetPoint" />
          </mxGeometry>
        </mxCell>
        <mxCell id="7nc90YaqfQpY86WDY4Ez-75" value="NOT IN USE" style="text;html=1;align=center;verticalAlign=middle;resizable=0;points=[];autosize=1;strokeColor=none;fillColor=none;" vertex="1" parent="3">
          <mxGeometry x="365" y="360" width="90" height="30" as="geometry" />
        </mxCell>
        <mxCell id="7nc90YaqfQpY86WDY4Ez-76" value="CREATE A RANDOM SALT&amp;nbsp;" style="rounded=1;whiteSpace=wrap;html=1;" vertex="1" parent="3">
          <mxGeometry x="75" y="472" width="120" height="60" as="geometry" />
        </mxCell>
        <mxCell id="7nc90YaqfQpY86WDY4Ez-83" style="edgeStyle=orthogonalEdgeStyle;rounded=0;orthogonalLoop=1;jettySize=auto;html=1;entryX=0.5;entryY=1;entryDx=0;entryDy=0;" edge="1" parent="3" source="7nc90YaqfQpY86WDY4Ez-81" target="7nc90YaqfQpY86WDY4Ez-76">
          <mxGeometry relative="1" as="geometry" />
        </mxCell>
        <mxCell id="7nc90YaqfQpY86WDY4Ez-86" style="edgeStyle=orthogonalEdgeStyle;rounded=0;orthogonalLoop=1;jettySize=auto;html=1;entryX=1;entryY=0.5;entryDx=0;entryDy=0;" edge="1" parent="3" source="7nc90YaqfQpY86WDY4Ez-81" target="7nc90YaqfQpY86WDY4Ez-85">
          <mxGeometry relative="1" as="geometry">
            <Array as="points">
              <mxPoint x="530" y="702" />
            </Array>
          </mxGeometry>
        </mxCell>
        <mxCell id="7nc90YaqfQpY86WDY4Ez-81" value="" style="rhombus;whiteSpace=wrap;html=1;" vertex="1" parent="3">
          <mxGeometry x="500" y="592" width="60" height="60" as="geometry" />
        </mxCell>
        <mxCell id="7nc90YaqfQpY86WDY4Ez-84" value="IS IN USE" style="text;html=1;align=center;verticalAlign=middle;resizable=0;points=[];autosize=1;strokeColor=none;fillColor=none;" vertex="1" parent="3">
          <mxGeometry x="310" y="592" width="80" height="30" as="geometry" />
        </mxCell>
        <mxCell id="7nc90YaqfQpY86WDY4Ez-89" style="edgeStyle=orthogonalEdgeStyle;rounded=0;orthogonalLoop=1;jettySize=auto;html=1;entryX=0.5;entryY=0;entryDx=0;entryDy=0;" edge="1" parent="3" source="7nc90YaqfQpY86WDY4Ez-85" target="7nc90YaqfQpY86WDY4Ez-88">
          <mxGeometry relative="1" as="geometry" />
        </mxCell>
        <mxCell id="7nc90YaqfQpY86WDY4Ez-85" value="CREATE A RANDOM SALT&amp;nbsp;" style="rounded=1;whiteSpace=wrap;html=1;" vertex="1" parent="3">
          <mxGeometry x="75" y="672" width="120" height="60" as="geometry" />
        </mxCell>
        <mxCell id="7nc90YaqfQpY86WDY4Ez-87" value="NOT IN USE" style="text;html=1;align=center;verticalAlign=middle;resizable=0;points=[];autosize=1;strokeColor=none;fillColor=none;" vertex="1" parent="3">
          <mxGeometry x="305" y="668" width="90" height="30" as="geometry" />
        </mxCell>
        <mxCell id="7nc90YaqfQpY86WDY4Ez-88" value="CONCATENES PASSWORD WITH THE GENERATED SALT VALUE AND CREATE A HASH" style="rounded=1;whiteSpace=wrap;html=1;" vertex="1" parent="3">
          <mxGeometry x="40" y="792" width="190" height="88" as="geometry" />
        </mxCell>
        <mxCell id="7nc90YaqfQpY86WDY4Ez-109" style="edgeStyle=orthogonalEdgeStyle;rounded=0;orthogonalLoop=1;jettySize=auto;html=1;entryX=1;entryY=0.5;entryDx=0;entryDy=0;" edge="1" parent="3" source="7nc90YaqfQpY86WDY4Ez-105" target="7nc90YaqfQpY86WDY4Ez-107">
          <mxGeometry relative="1" as="geometry" />
        </mxCell>
        <mxCell id="7nc90YaqfQpY86WDY4Ez-105" value="CREATE A SESSION AND SEND TO HOME PAGE" style="rounded=1;whiteSpace=wrap;html=1;" vertex="1" parent="3">
          <mxGeometry x="280" y="952" width="160" height="60" as="geometry" />
        </mxCell>
        <mxCell id="7nc90YaqfQpY86WDY4Ez-107" value="" style="ellipse;html=1;shape=endState;fillColor=#000000;strokeColor=#ff0000;" vertex="1" parent="3">
          <mxGeometry x="120" y="967" width="30" height="30" as="geometry" />
        </mxCell>
        <mxCell id="7nc90YaqfQpY86WDY4Ez-62" style="edgeStyle=orthogonalEdgeStyle;rounded=0;orthogonalLoop=1;jettySize=auto;html=1;entryX=0;entryY=0.5;entryDx=0;entryDy=0;" edge="1" parent="1" source="7nc90YaqfQpY86WDY4Ez-58" target="7nc90YaqfQpY86WDY4Ez-61">
          <mxGeometry relative="1" as="geometry" />
        </mxCell>
        <mxCell id="7nc90YaqfQpY86WDY4Ez-67" style="edgeStyle=orthogonalEdgeStyle;rounded=0;orthogonalLoop=1;jettySize=auto;html=1;entryX=1;entryY=0.5;entryDx=0;entryDy=0;exitX=1;exitY=0.5;exitDx=0;exitDy=0;" edge="1" parent="1" source="7nc90YaqfQpY86WDY4Ez-61" target="7nc90YaqfQpY86WDY4Ez-66">
          <mxGeometry relative="1" as="geometry">
            <Array as="points">
              <mxPoint x="1410" y="249" />
              <mxPoint x="1410" y="430" />
            </Array>
          </mxGeometry>
        </mxCell>
        <mxCell id="7nc90YaqfQpY86WDY4Ez-79" style="edgeStyle=orthogonalEdgeStyle;rounded=0;orthogonalLoop=1;jettySize=auto;html=1;entryX=0;entryY=0.5;entryDx=0;entryDy=0;" edge="1" parent="1" source="7nc90YaqfQpY86WDY4Ez-76" target="7nc90YaqfQpY86WDY4Ez-78">
          <mxGeometry relative="1" as="geometry" />
        </mxCell>
        <mxCell id="7nc90YaqfQpY86WDY4Ez-82" style="edgeStyle=orthogonalEdgeStyle;rounded=0;orthogonalLoop=1;jettySize=auto;html=1;entryX=1;entryY=0.5;entryDx=0;entryDy=0;" edge="1" parent="1" source="7nc90YaqfQpY86WDY4Ez-78" target="7nc90YaqfQpY86WDY4Ez-81">
          <mxGeometry relative="1" as="geometry">
            <Array as="points">
              <mxPoint x="1290" y="750" />
            </Array>
          </mxGeometry>
        </mxCell>
        <mxCell id="7nc90YaqfQpY86WDY4Ez-91" style="edgeStyle=orthogonalEdgeStyle;rounded=0;orthogonalLoop=1;jettySize=auto;html=1;" edge="1" parent="1" source="7nc90YaqfQpY86WDY4Ez-88" target="7nc90YaqfQpY86WDY4Ez-90">
          <mxGeometry relative="1" as="geometry" />
        </mxCell>
        <mxCell id="7nc90YaqfQpY86WDY4Ez-106" style="edgeStyle=orthogonalEdgeStyle;rounded=0;orthogonalLoop=1;jettySize=auto;html=1;curved=0;entryX=1;entryY=0.5;entryDx=0;entryDy=0;" edge="1" parent="1" source="7nc90YaqfQpY86WDY4Ez-98" target="7nc90YaqfQpY86WDY4Ez-105">
          <mxGeometry relative="1" as="geometry">
            <Array as="points">
              <mxPoint x="1450" y="964" />
              <mxPoint x="1450" y="1110" />
            </Array>
          </mxGeometry>
        </mxCell>
        <mxCell id="7nc90YaqfQpY86WDY4Ez-110" value="&lt;font data-sider-select-id=&quot;27d13580-9784-4d7a-993a-409961da1fbb&quot; style=&quot;font-size: 36px;&quot;&gt;&lt;u data-sider-select-id=&quot;a1bdf576-4f4a-4557-ab19-ac11043a1eee&quot;&gt;&lt;i data-sider-select-id=&quot;b73e61d5-be33-417d-b80b-88c1ea88e59d&quot;&gt;&lt;b data-sider-select-id=&quot;95d108f3-91fc-4d9d-972b-4e39a701d905&quot;&gt;REGISTER PAGE&lt;/b&gt;&lt;/i&gt;&lt;/u&gt;&lt;/font&gt;" style="text;html=1;align=center;verticalAlign=middle;resizable=0;points=[];autosize=1;strokeColor=none;fillColor=none;" vertex="1" parent="1">
          <mxGeometry x="170" y="68" width="320" height="60" as="geometry" />
        </mxCell>
      </root>
    </mxGraphModel>
  </diagram>
</mxfile>
